<svg width="130" height="62" viewBox="0 0 130 62" fill="none" xmlns="http://www.w3.org/2000/svg">
<g clip-path="url(#clip0_137_485)">
<path d="M57.8586 0H75.8843C76.0903 0.328856 76.6351 0.198106 76.9699 0.202068C85.6014 0.293197 94.3101 0.622052 102.92 1.38872C114.396 2.41095 125.131 2.29605 128.713 15.4106L129.957 23.3785V26.9444L128.755 34.7557C123.877 54.7842 103.429 59.5149 85.2943 58.4412C80.7161 58.1698 72.6492 56.4483 68.6178 58.6056C67.3023 59.3089 66.3712 60.6481 65.0935 61.4108C63.6116 60.7927 62.6726 59.2614 61.2344 58.5343C57.1772 56.4819 49.2549 58.1698 44.6846 58.4412C24.3867 59.6417 3.42315 53.6015 0.441654 30.5836C0.281188 29.3395 0.350525 27.9448 0.0196884 26.7463C0.0672338 25.6309 -0.0456865 24.4918 0.0196884 23.3785C0.602119 13.3959 3.97586 4.7486 14.8083 2.80518C26.7917 0.653749 41.9111 0.245651 54.0946 0H57.8586ZM57.2227 4.41578C45.2631 4.58417 33.038 4.9467 21.1397 6.36316C11.5019 7.51019 6.25408 8.94051 4.80196 19.7393C1.96707 40.8058 14.0337 52.3633 34.189 54.0809C40.5165 54.6197 46.0416 53.6153 52.2146 53.2924C56.5947 53.0626 61.4701 53.0091 65.0578 55.85C66.7615 54.3483 69.3745 53.4786 71.627 53.2944C77.6177 52.8031 83.6698 54.2196 89.6407 54.2909C111.171 54.5425 127.309 45.1047 125.399 21.4984C124.753 13.5069 121.847 8.32044 113.588 6.96342C96.1208 4.09287 74.9988 4.16815 57.2227 4.41776V4.41578Z" fill="white"/>
<path d="M57.2229 4.41586C74.9989 4.16426 96.1209 4.09096 113.588 6.96152C121.847 8.31854 124.753 13.505 125.399 21.4965C127.309 45.1028 111.171 54.5406 89.6409 54.289C83.6719 54.2196 77.6178 52.8012 71.6271 53.2925C69.3747 53.4768 66.7616 54.3464 65.0579 55.8481C61.4702 53.0072 56.5949 53.0607 52.2147 53.2905C46.0418 53.6134 40.5186 54.6178 34.1891 54.079C14.0338 52.3634 1.96917 40.8059 4.80209 19.7393C6.2542 8.94059 11.502 7.51027 21.1399 6.36324C33.0381 4.94678 45.2652 4.58425 57.2229 4.41586ZM84.3019 39.0269H90.3442L90.36 37.7689L89.1436 37.3192L88.9792 15.3691C88.6999 14.9729 84.4426 16.5875 84.185 16.9183C83.9612 17.2056 83.8839 17.9504 84.0919 18.2377C84.3633 18.6121 85.239 18.1129 85.4014 19.3055V37.3272C85.3638 37.5669 83.7888 37.2519 83.9968 38.5257C84.0266 38.706 84.1355 38.9734 84.3039 39.0249L84.3019 39.0269ZM91.2336 39.0269H97.2759L97.2501 37.6679L96.0773 37.3291L95.9129 15.3711C95.6078 14.9373 91.3941 16.5459 91.1227 16.9243C89.9341 18.5804 92.6877 18.1902 92.3331 19.7057L92.3371 37.3311C92.2975 37.5708 90.7225 37.2559 90.9286 38.5297C90.9583 38.7099 91.0672 38.9774 91.2356 39.0289L91.2336 39.0269ZM11.3118 39.0269H21.7104C21.9283 39.0269 23.7331 38.3672 24.0619 38.2107C30.2686 35.2471 30.8827 24.4444 26.566 19.7076C22.7683 15.5395 16.5933 17.4829 11.5991 17.0233L11.2881 17.1521L11.2009 18.2258L12.7045 18.9489L12.5817 37.2658L11.2881 37.557L11.3099 39.0269H11.3118ZM65.5829 17.0372H58.4531C58.2946 18.4358 58.4887 18.4635 59.6457 18.9647L64.6459 38.282L65.0896 39.0269H69.2498C70.1057 39.0269 68.7447 36.7982 68.9923 36.4099C70.696 31.5821 71.4964 25.9916 73.2536 21.241C73.4814 20.6269 73.7647 19.9057 74.1966 19.4105C75.0543 18.4259 76.3955 18.8756 75.6883 17.0392H69.8442C69.7134 17.0392 69.5629 17.372 69.5371 17.5404C69.3212 18.9014 71.0308 18.5091 71.5419 19.3035C71.8748 19.8206 71.7044 20.504 71.7242 21.0983L68.0632 34.2763L64.1962 18.937L65.6958 18.2298L65.5869 17.0392L65.5829 17.0372ZM35.4391 23.4221C27.8596 23.9531 27.9309 39.6351 35.3777 39.6351C36.4931 39.6351 38.1056 38.9754 38.9417 38.2325C39.3577 37.8621 40.8058 35.8315 40.8098 35.362C40.8138 34.9657 40.3007 34.2882 39.9282 34.3199C39.4686 34.3576 38.5593 36.408 36.7882 36.2415C35.4986 36.1207 33.777 34.0188 34.2802 32.7826C36.0275 31.9129 38.3315 31.4712 40.0312 30.6074C40.2868 30.4787 40.7206 30.2944 40.7761 29.9913C40.8653 29.5099 40.2194 27.2674 39.9817 26.6929C39.2051 24.8009 37.5926 23.2716 35.4352 23.4221H35.4391ZM54.8555 39.1913C55.8302 36.6219 57.0881 34.1396 58.0073 31.5484C58.667 29.6862 60.9492 23.7015 57.516 23.4182C55.6776 23.2676 55.1942 25.4903 55.5766 26.9484C55.7886 27.7567 56.7236 28.2856 56.9613 28.9334C57.4645 30.3103 55.6539 32.7985 55.4815 34.2724C54.9605 34.3318 55.1685 34.2645 55.0853 33.9812C54.1047 30.7045 53.3202 27.3842 52.5258 24.058L50.4298 24.163L47.7593 33.8762C47.274 33.9376 47.4463 33.8722 47.3453 33.5988C47.0699 32.85 46.8481 31.7624 46.6301 30.9462C46.3528 29.9101 45.3088 24.2522 45.0928 23.9669C44.6748 23.4122 41.2872 24.8921 40.9108 25.3378C39.8688 26.578 41.3011 26.7226 41.7171 27.1426C42.1331 27.5625 43.2386 32.5786 43.5496 33.6305C44.1003 35.5046 44.6828 37.3826 45.4177 39.1894L47.3889 39.1042L50.2396 30.3043L52.811 39.0269L54.8614 39.1894L54.8555 39.1913ZM83.7809 37.0716L82.5348 37.0161L82.2495 36.719C81.8553 32.8262 83.565 26.4452 79.3116 24.2046C77.4118 23.2022 73.0673 22.6971 72.7088 25.6488C72.5463 26.9801 72.8455 28.2678 74.4006 28.3431C75.9419 28.4164 76.7244 26.469 76.6749 25.1575C78.2399 24.5751 79.06 28.7829 78.537 29.1434C74.9969 30.2548 71.7341 32.1328 72.1105 36.3604C72.4215 39.8491 75.8785 40.4671 78.2716 38.3435C78.6242 38.0304 78.5311 37.5094 79.0462 37.6402C79.7871 40.5781 83.7987 39.9283 83.7769 37.0716H83.7809ZM106.117 24.6365C104.465 22.9764 101.854 23.1408 100.065 24.484C94.7362 28.4857 96.9807 42.2996 104.849 39.1735C106.159 38.6545 109.626 35.2312 107.274 34.3219C105.882 35.8949 104.154 37.3391 102.425 35.1639C102.024 34.6607 101.083 33.1452 101.771 32.7272C102.805 32.0992 107.738 30.8135 108.077 30.1102C108.124 28.4699 107.312 25.839 106.115 24.6365H106.117ZM108.029 26.889C108.265 27.097 109.071 27.1346 109.198 27.7943L113.915 39.1458C113.986 39.9144 112.851 41.3507 112.142 41.7212C111.882 41.7845 109.249 38.9814 107.997 41.3289C106.549 44.0469 109.352 46.024 111.922 44.2628C115.121 42.0718 120.724 29.8784 120.629 26.0708C120.53 22.1344 115.712 22.7208 116.577 26.7543C116.823 27.9013 117.922 28.66 118.224 29.7774L116.288 35.0628L112.037 23.9649C111.506 23.4221 108.673 24.8128 108.18 25.2665C107.764 25.6469 107.597 26.5066 108.027 26.887L108.029 26.889Z" fill="#D1082A"/>
<path d="M11.3118 39.0269L11.29 37.5569L12.5837 37.2657L12.7065 18.9489L11.2029 18.2258L11.29 17.152L11.6011 17.0233C16.5953 17.4809 22.7683 15.5395 26.568 19.7076C30.8847 24.4443 30.2686 35.247 24.0639 38.2107C23.7351 38.3672 21.9303 39.0269 21.7124 39.0269H11.3138H11.3118ZM17.253 18.622V37.442C24.2204 38.4444 24.6899 31.3939 24.3928 26.2392C24.1233 21.5678 22.6791 17.9623 17.253 18.622Z" fill="#FDFAFA"/>
<path d="M54.8555 39.1913L52.8051 39.0289L50.2337 30.3063L47.3829 39.1061L45.4118 39.1913C44.6768 37.3826 44.0944 35.5046 43.5436 33.6325C43.2326 32.5785 42.1153 27.5526 41.7112 27.1445C41.307 26.7364 39.8628 26.5799 40.9049 25.3398C41.2813 24.892 44.6669 23.4142 45.0869 23.9689C45.3028 24.2561 46.3468 29.912 46.6242 30.9481C46.8421 31.7643 47.064 32.8519 47.3394 33.6008C47.4404 33.8741 47.268 33.9395 47.7534 33.8781L50.4239 24.165L52.5198 24.06C53.3162 27.3862 54.0987 30.7064 55.0793 33.9831C55.1645 34.2644 54.9565 34.3338 55.4756 34.2743C55.6479 32.8004 57.4586 30.3122 56.9554 28.9354C56.7197 28.2876 55.7826 27.7586 55.5706 26.9504C55.1883 25.4923 55.6717 23.2695 57.5101 23.4201C60.9433 23.7014 58.6631 29.6882 58.0014 31.5504C57.0822 34.1416 55.8242 36.6258 54.8495 39.1933L54.8555 39.1913Z" fill="#FDFAF9"/>
<path d="M65.5829 17.0371L65.6919 18.2278L64.1922 18.935L68.0592 34.2743L71.7202 21.0963C71.7024 20.502 71.8708 19.8185 71.538 19.3015C71.0269 18.5071 69.3172 18.8974 69.5331 17.5383C69.5589 17.3719 69.7095 17.0371 69.8402 17.0371H75.6843C76.3916 18.8736 75.0504 18.4239 74.1926 19.4085C73.7607 19.9037 73.4774 20.6268 73.2496 21.239C71.4924 25.9895 70.6921 31.5801 68.9883 36.4079C68.7407 36.7962 70.1017 39.0249 69.2459 39.0249H65.0857L64.6419 38.28L59.6417 18.9627C58.4848 18.4615 58.2906 18.4338 58.4491 17.0352H65.5789L65.5829 17.0371Z" fill="#FDFAFA"/>
<path d="M108.029 26.8888C107.599 26.5085 107.766 25.6487 108.182 25.2683C108.675 24.8147 111.508 23.424 112.039 23.9668L116.29 35.0647L118.226 29.7792C117.924 28.6619 116.827 27.9031 116.579 26.7561C115.714 22.7227 120.531 22.1343 120.631 26.0726C120.726 29.8802 115.121 42.0736 111.924 44.2647C109.354 46.0259 106.551 44.0488 107.999 41.3308C109.251 38.9832 111.884 41.7884 112.144 41.723C112.855 41.3525 113.988 39.9143 113.917 39.1476L109.2 27.7962C109.073 27.1365 108.265 27.0988 108.031 26.8908L108.029 26.8888Z" fill="#FDFAF9"/>
<path d="M83.7809 37.0716C83.8027 39.9303 79.7891 40.5781 79.0502 37.6402C78.5331 37.5094 78.6262 38.0305 78.2756 38.3435C75.8805 40.4672 72.4255 39.8491 72.1145 36.3604C71.7381 32.1348 75.0009 30.2548 78.541 29.1434C79.064 28.7829 78.2439 24.5751 76.6788 25.1575C76.7284 26.469 75.9458 28.4164 74.4046 28.3431C72.8494 28.2678 72.5523 26.9801 72.7128 25.6489C73.0713 22.6971 77.4158 23.2022 79.3156 24.2047C83.569 26.4472 81.8573 32.8262 82.2535 36.719L82.5388 37.0162L83.7849 37.0716H83.7809ZM78.6559 36.4516V30.5084C77.4217 31.0413 76.0944 32.1962 75.9003 33.5969C75.6071 35.7047 76.2489 37.6699 78.6559 36.4516Z" fill="#FDFAF9"/>
<path d="M106.117 24.6363C107.314 25.8388 108.126 28.4697 108.079 30.11C107.74 30.8133 102.805 32.099 101.773 32.727C101.085 33.145 102.026 34.6605 102.427 35.1637C104.156 37.3389 105.884 35.8947 107.276 34.3217C109.626 35.231 106.159 38.6543 104.851 39.1733C96.9827 42.2975 94.7381 28.4855 100.067 24.4838C101.856 23.1406 104.467 22.9762 106.119 24.6363H106.117ZM101.04 30.7083C103.389 30.1496 104.966 29.9753 104.552 27.0929C104.36 25.7556 103.681 24.7512 102.169 25.2009C100.858 25.5912 100.741 29.5632 101.04 30.7063V30.7083Z" fill="#FDFAF9"/>
<path d="M35.4391 23.4221C37.5945 23.2715 39.2071 24.8009 39.9857 26.6928C40.2214 27.2693 40.8692 29.5119 40.7801 29.9913C40.7226 30.2944 40.2888 30.4786 40.0352 30.6074C38.3335 31.4711 36.0295 31.9129 34.2842 32.7826C33.781 34.0188 35.5025 36.1207 36.7922 36.2415C38.5633 36.4079 39.4746 34.3575 39.9322 34.3199C40.3046 34.2902 40.8157 34.9677 40.8138 35.3619C40.8098 35.8315 39.3616 37.862 38.9456 38.2325C38.1076 38.9754 36.497 39.6351 35.3817 39.6351C27.9349 39.6351 27.8636 23.953 35.4431 23.4221H35.4391ZM33.4957 30.7065C36.3643 30.3162 38.1433 29.4247 36.9051 26.2055C36.3247 24.6939 34.6289 24.7197 33.987 26.1461C33.884 26.3739 33.4937 27.6814 33.4937 27.8319V30.7045L33.4957 30.7065Z" fill="#FDFAF9"/>
<path d="M91.2337 39.0268C91.0653 38.9753 90.9563 38.7078 90.9266 38.5276C90.7186 37.2537 92.2935 37.5687 92.3351 37.329L92.3312 19.7036C92.6838 18.188 89.9321 18.5783 91.1207 16.9222C91.3921 16.5438 95.6078 14.9371 95.9109 15.369L96.0754 37.327L97.2481 37.6658L97.2739 39.0248H91.2317L91.2337 39.0268Z" fill="#FDF8F8"/>
<path d="M84.3019 39.0268C84.1335 38.9753 84.0246 38.7079 83.9949 38.5276C83.7869 37.2538 85.3618 37.5688 85.4034 37.329V19.3074C85.241 18.1148 84.3633 18.614 84.0919 18.2396C83.8839 17.9523 83.9632 17.2074 84.1851 16.9202C84.4426 16.5894 88.6999 14.9748 88.9792 15.371L89.1436 37.3211L90.36 37.7708L90.3442 39.0288H84.3019V39.0268Z" fill="#FDFBFA"/>
<path d="M17.253 18.622C22.6791 17.9623 24.1253 21.5679 24.3928 26.2392C24.6899 31.3919 24.2184 38.4445 17.253 37.4421V18.622Z" fill="#D1082B"/>
<path d="M78.6559 36.4515C76.2489 37.6678 75.6071 35.7046 75.9003 33.5968C76.0944 32.1981 77.4197 31.0432 78.6559 30.5083V36.4515Z" fill="#D20C2C"/>
<path d="M101.04 30.7084C100.741 29.5654 100.858 25.5933 102.169 25.2031C103.681 24.7514 104.36 25.7578 104.552 27.095C104.968 29.9754 103.389 30.1498 101.04 30.7104V30.7084Z" fill="#D20C2D"/>
<path d="M33.4957 30.7064V27.8339C33.4957 27.6833 33.886 26.3758 33.989 26.148C34.6289 24.7216 36.3247 24.6939 36.9071 26.2074C38.1453 29.4266 36.3643 30.3181 33.4977 30.7084L33.4957 30.7064Z" fill="#D20E2D"/>
</g>
<defs>
<clipPath id="clip0_137_485">
<rect width="129.957" height="61.6109" fill="white"/>
</clipPath>
</defs>
</svg>
