<svg width="97" height="46" viewBox="0 0 97 46" fill="none" xmlns="http://www.w3.org/2000/svg">
<g clip-path="url(#clip0_95_644)">
<path d="M42.802 0H56.1368C56.2892 0.243277 56.6922 0.146552 56.9399 0.149483C63.3252 0.216898 69.7676 0.460175 76.1368 1.02733C84.6265 1.78354 92.5682 1.69854 95.2179 11.4003L96.1382 17.2947V19.9326L95.2487 25.7112C91.6405 40.5276 76.5134 44.0273 63.098 43.233C59.7112 43.0322 53.7436 41.7586 50.7612 43.3546C49.7881 43.8749 49.0993 44.8656 48.154 45.4298C47.0578 44.9725 46.3632 43.8397 45.2992 43.3018C42.2978 41.7836 36.4372 43.0322 33.0562 43.233C18.0405 44.1211 2.53229 39.6527 0.326676 22.6248C0.207969 21.7044 0.259262 20.6727 0.0145196 19.786C0.0496921 18.961 -0.0338427 18.1183 0.0145196 17.2947C0.445384 9.90987 2.94117 3.51286 10.9547 2.07518C19.8196 0.483623 31.0045 0.181725 40.0175 0H42.802ZM42.3315 3.26665C33.4842 3.39122 24.4404 3.65941 15.6385 4.70726C8.5087 5.5558 4.62652 6.61391 3.55229 14.6025C1.45513 30.1869 10.3816 38.7367 25.2919 40.0073C29.9728 40.406 34.0601 39.6629 38.6267 39.4241C41.867 39.2541 45.4736 39.2145 48.1277 41.3161C49.388 40.2052 51.321 39.5618 52.9874 39.4255C57.4191 39.0621 61.8963 40.1099 66.3134 40.1627C82.2407 40.3488 94.1788 33.3671 92.7661 15.9039C92.2883 9.99194 90.1384 6.1552 84.0286 5.15132C71.1071 3.02777 55.4817 3.08346 42.3315 3.26812V3.26665Z" fill="#D9B156"/>
<path d="M42.3316 3.26665C55.4818 3.08053 71.1072 3.02631 84.0287 5.14985C90.1385 6.15373 92.2884 9.99048 92.7662 15.9024C94.1789 33.3656 82.2408 40.3473 66.3135 40.1612C61.8978 40.1099 57.4192 39.0606 52.9874 39.4241C51.3211 39.5604 49.3881 40.2037 48.1278 41.3146C45.4737 39.213 41.8671 39.2526 38.6268 39.4226C34.0602 39.6615 29.9743 40.4045 25.292 40.0059C10.3817 38.7367 1.45669 30.1869 3.55239 14.6025C4.62662 6.61391 8.50879 5.5558 15.6386 4.70726C24.4405 3.65941 33.4857 3.39122 42.3316 3.26665ZM62.3639 28.8708H66.8337L66.8454 27.9402L65.9456 27.6075L65.824 11.3695C65.6173 11.0764 62.4679 12.2708 62.2774 12.5156C62.1118 12.7281 62.0546 13.2791 62.2085 13.4916C62.4093 13.7686 63.0571 13.3993 63.1772 14.2815V27.6134C63.1494 27.7907 61.9843 27.5577 62.1382 28.5C62.1602 28.6334 62.2408 28.8313 62.3653 28.8694L62.3639 28.8708ZM67.4917 28.8708H71.9616L71.9425 27.8655L71.0749 27.6149L70.9533 11.371C70.7276 11.0501 67.6104 12.2401 67.4097 12.52C66.5304 13.7451 68.5674 13.4564 68.3051 14.5776L68.308 27.6163C68.2787 27.7937 67.1136 27.5606 67.266 28.503C67.288 28.6363 67.3686 28.8342 67.4932 28.8723L67.4917 28.8708ZM8.3681 28.8708H16.0606C16.2218 28.8708 17.5569 28.3828 17.8002 28.267C22.3917 26.0746 22.846 18.0831 19.6526 14.579C16.8432 11.4956 12.2752 12.9332 8.5806 12.5932L8.35051 12.6885L8.28603 13.4828L9.39836 14.0177L9.3075 27.568L8.35051 27.7834L8.36663 28.8708H8.3681ZM48.5161 12.6035H43.2417C43.1245 13.6382 43.2681 13.6587 44.124 14.0295L47.8229 28.3198L48.1512 28.8708H51.2288C51.8619 28.8708 50.8551 27.2221 51.0383 26.9349C52.2986 23.3634 52.8907 19.2277 54.1906 15.7133C54.3592 15.259 54.5687 14.7256 54.8882 14.3592C55.5228 13.6308 56.515 13.9635 55.9918 12.605H51.6685C51.5717 12.605 51.4604 12.8512 51.4413 12.9757C51.2816 13.9826 52.5463 13.6924 52.9244 14.2801C53.1706 14.6626 53.0446 15.1682 53.0593 15.6078L50.351 25.3565L47.4903 14.0089L48.5997 13.4858L48.5191 12.605L48.5161 12.6035ZM26.2167 17.3269C20.6096 17.7197 20.6624 29.3207 26.1713 29.3207C26.9964 29.3207 28.1893 28.8327 28.8078 28.2831C29.1155 28.0091 30.1868 26.5069 30.1898 26.1596C30.1927 25.8665 29.8131 25.3653 29.5376 25.3887C29.1976 25.4166 28.5249 26.9334 27.2147 26.8103C26.2607 26.7209 24.9871 25.166 25.3594 24.2515C26.652 23.6081 28.3564 23.2813 29.6138 22.6423C29.8029 22.5471 30.1238 22.4108 30.1648 22.1866C30.2308 21.8304 29.753 20.1715 29.5772 19.7465C29.0027 18.3469 27.8097 17.2155 26.2138 17.3269H26.2167ZM40.5803 28.9925C41.3014 27.0917 42.232 25.2554 42.912 23.3385C43.4 21.9609 45.0883 17.5335 42.5485 17.324C41.1885 17.2126 40.8309 18.8569 41.1138 19.9355C41.2706 20.5335 41.9623 20.9248 42.1382 21.404C42.5104 22.4225 41.1709 24.2632 41.0434 25.3536C40.658 25.3975 40.8119 25.3477 40.7503 25.1381C40.0249 22.7142 39.4445 20.2579 38.8569 17.7973L37.3063 17.875L35.3308 25.0605C34.9718 25.1059 35.0993 25.0575 35.0245 24.8553C34.8208 24.3013 34.6567 23.4967 34.4955 22.893C34.2903 22.1265 33.518 17.9409 33.3582 17.7299C33.049 17.3196 30.5429 18.4143 30.2645 18.7441C29.4936 19.6615 30.5532 19.7685 30.861 20.0791C31.1687 20.3898 31.9865 24.1005 32.2166 24.8787C32.624 26.2651 33.0549 27.6544 33.5986 28.991L35.0568 28.928L37.1656 22.4181L39.0679 28.8708L40.5847 28.991L40.5803 28.9925ZM61.9784 27.4244L61.0566 27.3833L60.8456 27.1635C60.5539 24.2837 61.8187 19.5633 58.6722 17.9058C57.2668 17.1642 54.0529 16.7905 53.7876 18.9741C53.6674 19.959 53.8887 20.9116 55.0392 20.9673C56.1794 21.0215 56.7582 19.5809 56.7216 18.6107C57.8794 18.1798 58.4861 21.2926 58.0992 21.5593C55.4803 22.3815 53.0666 23.7708 53.345 26.8982C53.5751 29.479 56.1325 29.9363 57.9028 28.3652C58.1637 28.1337 58.0948 27.7482 58.4758 27.845C59.0239 30.0183 61.9916 29.5376 61.9755 27.4244H61.9784ZM78.5022 18.2253C77.28 16.9971 75.3484 17.1188 74.025 18.1124C70.0828 21.0728 71.7432 31.2919 77.5643 28.9793C78.533 28.5953 81.0977 26.0629 79.3581 25.3902C78.3278 26.5538 77.0499 27.6222 75.7705 26.0131C75.4744 25.6408 74.7783 24.5197 75.2869 24.2105C76.0519 23.7459 79.701 22.7948 79.9516 22.2745C79.9868 21.061 79.3859 19.1148 78.5008 18.2253H78.5022ZM79.9165 19.8916C80.0909 20.0454 80.6873 20.0733 80.7811 20.5613L84.2705 28.9588C84.3233 29.5274 83.4835 30.5899 82.9589 30.8639C82.7669 30.9108 80.8192 28.8371 79.893 30.5738C78.8217 32.5845 80.8954 34.0471 82.7962 32.7442C85.163 31.1233 89.3075 22.103 89.2372 19.2863C89.1639 16.3743 85.5998 16.8081 86.2402 19.7919C86.4219 20.6404 87.2353 21.2017 87.458 22.0283L86.0262 25.9383L82.8812 17.7284C82.4884 17.3269 80.3928 18.3557 80.0278 18.6913C79.7201 18.9727 79.597 19.6087 79.915 19.8901L79.9165 19.8916Z" fill="#D1082A"/>
<path d="M8.3682 28.8708L8.35208 27.7834L9.30907 27.568L9.39993 14.0177L8.2876 13.4828L8.35208 12.6885L8.58217 12.5932C12.2768 12.9318 16.8433 11.4956 19.6542 14.579C22.8476 18.0831 22.3918 26.0746 17.8018 28.267C17.5585 28.3828 16.2234 28.8708 16.0622 28.8708H8.36967H8.3682ZM12.7633 13.7759V27.6984C17.9176 28.44 18.2649 23.2242 18.0451 19.4109C17.8457 15.9552 16.7774 13.2879 12.7633 13.7759Z" fill="#FDFAFA"/>
<path d="M40.5804 28.9925L39.0635 28.8723L37.1613 22.4196L35.0524 28.9294L33.5942 28.9925C33.0505 27.6544 32.6196 26.2651 32.2122 24.8802C31.9821 24.1005 31.1556 20.3825 30.8566 20.0806C30.5576 19.7787 29.4893 19.6629 30.2601 18.7455C30.5386 18.4143 33.0432 17.321 33.3539 17.7314C33.5136 17.9439 34.2859 22.128 34.4911 22.8944C34.6523 23.4982 34.8165 24.3028 35.0202 24.8568C35.0949 25.059 34.9674 25.1074 35.3265 25.0619L37.302 17.8765L38.8525 17.7988C39.4417 20.2594 40.0205 22.7156 40.746 25.1396C40.809 25.3477 40.6551 25.399 41.0391 25.355C41.1666 24.2647 42.5061 22.424 42.1338 21.4054C41.9594 20.9262 41.2662 20.5349 41.1094 19.937C40.8266 18.8584 41.1842 17.214 42.5442 17.3254C45.0839 17.5335 43.3971 21.9623 42.9076 23.3399C42.2276 25.2568 41.297 27.0946 40.576 28.9939L40.5804 28.9925Z" fill="#FDFAF9"/>
<path d="M48.5162 12.6035L48.5968 13.4843L47.4874 14.0075L50.3481 25.355L53.0564 15.6064C53.0432 15.1667 53.1678 14.6611 52.9216 14.2786C52.5435 13.6909 51.2787 13.9796 51.4385 12.9743C51.4575 12.8512 51.5689 12.6035 51.6656 12.6035H55.9889C56.5121 13.962 55.5199 13.6294 54.8854 14.3577C54.5659 14.7241 54.3563 15.259 54.1878 15.7119C52.8879 19.2262 52.2958 23.3619 51.0354 26.9334C50.8523 27.2206 51.8591 28.8694 51.226 28.8694H48.1484L47.8201 28.3183L44.1211 14.028C43.2652 13.6572 43.1216 13.6367 43.2389 12.602H48.5133L48.5162 12.6035Z" fill="#FDFAFA"/>
<path d="M79.9165 19.8916C79.5984 19.6102 79.7216 18.9741 80.0293 18.6928C80.3942 18.3572 82.4899 17.3284 82.8827 17.7299L86.0277 25.9398L87.4595 22.0298C87.2368 21.2032 86.4249 20.6419 86.2417 19.7934C85.6012 16.8096 89.1654 16.3743 89.2387 19.2878C89.309 22.1045 85.163 31.1248 82.7977 32.7457C80.8969 34.0485 78.8232 32.5859 79.8945 30.5752C80.8207 28.8386 82.7684 30.9138 82.9604 30.8654C83.4865 30.5913 84.3248 29.5274 84.272 28.9602L80.7826 20.5628C80.6888 20.0747 80.0909 20.0469 79.9179 19.893L79.9165 19.8916Z" fill="#FDFAF9"/>
<path d="M61.9785 27.4244C61.9946 29.5391 59.0254 30.0183 58.4788 27.845C58.0963 27.7482 58.1652 28.1337 57.9058 28.3652C56.134 29.9363 53.5781 29.479 53.348 26.8982C53.0696 23.7723 55.4833 22.3815 58.1022 21.5593C58.4891 21.2926 57.8823 18.1798 56.7246 18.6107C56.7612 19.5809 56.1823 21.0215 55.0422 20.9673C53.8917 20.9116 53.6719 19.959 53.7906 18.9741C54.0559 16.7905 57.2698 17.1642 58.6752 17.9058C61.8217 19.5647 60.5555 24.2837 60.8486 27.1635L61.0596 27.3833L61.9814 27.4244H61.9785ZM58.1872 26.9656V22.5691C57.2741 22.9633 56.2922 23.8177 56.1486 24.8538C55.9317 26.4131 56.4066 27.8669 58.1872 26.9656Z" fill="#FDFAF9"/>
<path d="M78.5023 18.2253C79.3875 19.1148 79.9883 21.061 79.9532 22.2745C79.7026 22.7948 76.0519 23.7459 75.2884 24.2105C74.7799 24.5197 75.476 25.6408 75.772 26.0131C77.0514 27.6222 78.3294 26.5538 79.3596 25.3902C81.0977 26.0629 78.5331 28.5953 77.5658 28.9793C71.7448 31.2904 70.0843 21.0728 74.0266 18.1124C75.35 17.1188 77.2815 16.9971 78.5038 18.2253H78.5023ZM74.7462 22.7171C76.4843 22.3038 77.6508 22.1748 77.3445 20.0425C77.2024 19.0533 76.6997 18.3103 75.5815 18.6429C74.6113 18.9316 74.5249 21.87 74.7462 22.7156V22.7171Z" fill="#FDFAF9"/>
<path d="M26.2167 17.3269C27.8112 17.2155 29.0042 18.3469 29.5801 19.7465C29.7545 20.1729 30.2337 21.8319 30.1678 22.1866C30.1253 22.4108 29.8043 22.5471 29.6167 22.6423C28.3579 23.2813 26.6535 23.6081 25.3623 24.2515C24.9901 25.166 26.2636 26.7209 27.2177 26.8103C28.5279 26.9334 29.202 25.4166 29.5405 25.3887C29.8161 25.3668 30.1942 25.868 30.1927 26.1596C30.1898 26.5069 29.1185 28.0091 28.8107 28.2832C28.1908 28.8327 26.9993 29.3207 26.1742 29.3207C20.6653 29.3207 20.6126 17.7197 26.2197 17.3269H26.2167ZM24.779 22.7156C26.9011 22.4269 28.2172 21.7674 27.3012 19.386C26.8718 18.2678 25.6173 18.2868 25.1425 19.342C25.0663 19.5105 24.7776 20.4778 24.7776 20.5892V22.7142L24.779 22.7156Z" fill="#FDFAF9"/>
<path d="M67.4918 28.8708C67.3673 28.8327 67.2867 28.6349 67.2647 28.5015C67.1108 27.5592 68.2759 27.7922 68.3067 27.6149L68.3037 14.5761C68.5646 13.455 66.529 13.7437 67.4083 12.5185C67.6091 12.2386 70.7277 11.0501 70.9519 11.3695L71.0736 27.6134L71.9412 27.864L71.9602 28.8694H67.4904L67.4918 28.8708Z" fill="#FDF8F8"/>
<path d="M62.3639 28.8708C62.2393 28.8327 62.1587 28.6349 62.1367 28.5015C61.9828 27.5592 63.1479 27.7922 63.1787 27.6149V14.283C63.0585 13.4008 62.4093 13.7701 62.2085 13.4931C62.0546 13.2806 62.1133 12.7295 62.2774 12.517C62.4679 12.2723 65.6173 11.0779 65.824 11.371L65.9456 27.609L66.8454 27.9417L66.8337 28.8723H62.3639V28.8708Z" fill="#FDFBFA"/>
<path d="M12.7633 13.7759C16.7774 13.2879 17.8472 15.9552 18.0451 19.4109C18.2649 23.2227 17.9161 28.44 12.7633 27.6984V13.7759Z" fill="#D1082B"/>
<path d="M58.1871 26.9656C56.4065 27.8655 55.9317 26.4131 56.1486 24.8538C56.2922 23.8192 57.2726 22.9648 58.1871 22.5691V26.9656Z" fill="#D20C2C"/>
<path d="M74.7461 22.7171C74.5249 21.8715 74.6113 18.9331 75.5815 18.6444C76.6997 18.3103 77.2024 19.0547 77.3445 20.044C77.6523 22.1748 76.4843 22.3038 74.7461 22.7186V22.7171Z" fill="#D20C2D"/>
<path d="M24.7791 22.7156V20.5906C24.7791 20.4792 25.0678 19.512 25.144 19.3435C25.6173 18.2883 26.8718 18.2678 27.3027 19.3874C28.2186 21.7689 26.9011 22.4284 24.7805 22.7171L24.7791 22.7156Z" fill="#D20E2D"/>
</g>
<defs>
<clipPath id="clip0_95_644">
<rect width="96.1384" height="45.5778" fill="white"/>
</clipPath>
</defs>
</svg>
