<?xml version="1.0" encoding="UTF-8"?>
<svg id="Layer_1" xmlns="http://www.w3.org/2000/svg" width="25" height="25" version="1.1" viewBox="0 0 25 25">
  <!-- Generator: Adobe Illustrator 30.0.0, SVG Export Plug-In . SVG Version: 2.1.1 Build 123)  -->
  <defs>
    <style>
      .st0 {
        fill: #d1082a;
      }
    </style>
  </defs>
  <path class="st0" d="M4.2,0c.5,0,.8,0,1.2.4,1,1.8,2.3,3.5,3.3,5.3.5.9.7,1.2.2,2.2-.3.8-2,2.7-2,3.2,0,.4.7,1.4,1,1.7,1.1,1.6,2.9,3.4,4.5,4.5.3.2,1.2.8,1.4.9.2,0,.4-.1.6-.2,1.1-.6,2.6-2.3,4-2.1.2,0,.8.4,1,.5,1.8,1,3.4,2.2,5.2,3.2,1.5,1.2-.7,3.1-1.7,3.8-2.4,1.7-4.3,2-7.1,1.2C8.8,22.8,1.3,15.2.2,8.2c-.2-1.5-.3-2.5.3-3.9C1,3.1,2.7.3,4.2,0Z"/>
</svg>