<?xml version="1.0" encoding="UTF-8"?>
<svg id="Layer_1" data-name="Layer 1" xmlns="http://www.w3.org/2000/svg" width="73.03" height="91.85" viewBox="0 0 73.03 91.85">
  <path d="M67.99,62.35V23.26c0-3.86-3.13-7-6.99-7-1.42,0-2.73.44-3.83,1.16v-4.45c0-3.86-3.13-6.99-7-7-1.53,0-2.94.49-4.09,1.33-.82-2.95-3.52-5.11-6.73-5.11-3.86,0-6.99,3.13-6.99,7v1.2c-1.1-.73-2.41-1.16-3.83-1.16-3.86,0-6.99,3.13-7,6.99v22.01c-.9-1.27-2.48-2.29-4.44-2.26-1.18,0-2.47.32-3.91.97-.48.22-.8.68-.84,1.2,0,0,0,.05-.03.22-.17,1.21-1.24,7.07-6.97,14.42-.23.29-.33.65-.3,1.01,0,.06.74,9.06,3.72,18.18,1.49,4.56,3.54,9.17,6.44,12.74,2.87,3.55,6.76,6.11,11.62,6.11h.03c.09,0,.14,0,.16,0h24.93c8.87,0,16.06-7.19,16.06-16.05v-12.42s0-.01,0-.02h0ZM21.54,50.49v8.98l-1.17-.35c-.12-.12-.46-.54-.48-1.95,0-1.31.37-3.45,1.65-6.68ZM51.93,87.95s-25.05,0-25.08,0c-3.82-.01-6.83-1.91-9.4-5.05-3.84-4.69-6.29-12.07-7.7-18.24-.71-3.09-1.16-5.87-1.44-7.88-.17-1.21-.27-2.12-.33-2.66,5.29-6.93,6.74-12.68,7.12-14.83.82-.3,1.48-.42,1.99-.41,1.08.03,1.58.39,2.13,1.11,1.01,1.35,1.28,4.15,1.25,5.4,0,.15,0,.27,0,.37-2.65,5.47-3.47,9-3.48,11.42-.07,3.23,1.77,4.53,2.21,4.62l3.37,1.01c.23.07,1.18.13,1.18.13,0,0,.51.01,1.41.14,2.75.36,8.3,1.83,10.3,6.32.24.53.77.84,1.32.84.2,0,.41-.04.6-.14.73-.33,1.04-1.19.71-1.92-1.87-4.04-5.53-6.05-8.57-7.06-2.21-.73-4.16-.97-5.09-1.05V16.23c0-2.26,1.84-4.09,4.1-4.1,1.75,0,3.24,1.1,3.83,2.64,0,0,0,31.87,0,31.88,0,.8.64,1.45,1.44,1.46.8,0,1.45-.64,1.46-1.44V9.19c0-2.27,1.83-4.09,4.1-4.1,2.26,0,4.09,1.83,4.1,4.1v39.63c0,.8.65,1.45,1.45,1.45s1.45-.65,1.45-1.45h0V11.52c.59-1.54,2.08-2.64,3.82-2.64,2.26,0,4.09,1.84,4.1,4.1v37.35c0,.8.65,1.45,1.45,1.45s1.45-.65,1.45-1.45h0v-28.54c.59-1.54,2.08-2.64,3.83-2.64,2.26,0,4.09,1.83,4.09,4.1v51.53c-.01,7.26-5.89,13.14-13.16,13.16Z"/>
</svg>