<?xml version="1.0" encoding="UTF-8"?>
<svg id="Layer_1" data-name="Layer 1" xmlns="http://www.w3.org/2000/svg" width="73.03" height="91.85" viewBox="0 0 73.03 91.85">
  <path d="M67.86,36.78c0-3.87-3.13-7-7-7-1.45,0-2.78.45-3.89,1.2-.45-3.43-3.38-6.07-6.93-6.07-1.53,0-2.94.5-4.09,1.33-.82-2.95-3.52-5.11-6.73-5.11-3.34,0-6.13,2.34-6.83,5.48-.06.36-.03.28-.04.44-.01.37-.02,1.2-.02,2.34-1.12-.76-2.47-1.23-3.93-1.23-3.34,0-6.13,2.34-6.82,5.48l-.03.31v4.29c-.89-1.27-2.47-2.3-4.44-2.27-1.18,0-2.47.32-3.91.97-.48.22-.8.68-.84,1.2,0,0,0,.05-.03.23-.17,1.21-1.24,7.07-6.98,14.42-.23.29-.33.65-.3,1.01,0,.06.75,8.99,3.72,18.05,1.49,4.53,3.54,9.1,6.44,12.65,2.88,3.53,6.77,6.08,11.65,6.07.09,0,.14,0,.16,0h.38c.94.18,1.91.27,2.91.27h21.65c8.87,0,16.06-7.19,16.06-16.06l-.13-38ZM57.04,35.35c.58-1.55,2.07-2.66,3.82-2.66h0c2.26,0,4.09,1.84,4.1,4.1v9.47c0,.26-.03.51-.07.77h0c-.36,1.89-2.02,3.33-4.02,3.32-1.16,0-2.2-.48-2.94-1.26-.33-.34-.59-.74-.78-1.17-.03-.08-.07-.16-.1-.24-.02-.06-.05-.11-.07-.17h0c-.13-.41-.2-.82-.2-1.26v-9.47c0-.26.03-.53.08-.79.03-.15.07-.31.12-.47.02-.06.05-.11.07-.17ZM50.03,27.82h0c2.26,0,4.09,1.84,4.1,4.1v18.66c0,1.41-.72,2.66-1.81,3.4-.65.44-1.44.7-2.29.7-1.38,0-2.6-.69-3.35-1.74-.21-.3-.38-.64-.51-.99-.01-.04-.03-.07-.05-.11-.13-.4-.2-.82-.2-1.25v-18.67c0-.44.07-.86.2-1.26.02-.04.04-.08.05-.13.57-1.57,2.07-2.71,3.83-2.71ZM35.24,27.52c0-.17,0-.3,0-.38h0c.44-1.79,2.06-3.11,3.97-3.11,2.26,0,4.09,1.83,4.1,4.09,0,.06-.05,23.25-.03,23.61,0,.18,0,.32.02.45,0,.05,0,.08.01.12,0,.03,0,.05,0,.08,0,.17-.03.33-.06.5-.01.08-.02.16-.03.23-.04.19-.1.36-.17.54-.03.07-.04.15-.07.22-.07.17-.17.32-.26.47-.04.07-.07.14-.12.21-.1.14-.21.27-.33.39-.06.06-.11.14-.18.2-.12.11-.25.21-.37.31-.08.06-.15.13-.23.18-.13.09-.27.15-.41.22-.1.05-.18.1-.28.15-.15.06-.31.1-.47.15-.1.03-.19.06-.28.09-.24.05-.5.07-.76.08-.02,0-.03,0-.06,0-.15,0-.3-.03-.44-.05-2.01-.23-3.5-1.9-3.52-4.05,0-.03-.02-24.35-.02-24.68ZM24.44,34.13c.46-1.76,2.06-3.07,3.96-3.07,1.75,0,3.23,1.09,3.83,2.63v15.61c-.03.08-.06.16-.1.24-.04.09-.08.17-.12.26-.05.1-.11.19-.17.28-.05.08-.1.17-.16.24-.06.09-.14.17-.21.25-.07.07-.13.15-.2.22-.08.08-.16.14-.24.21-.08.06-.15.13-.23.19-.09.06-.19.12-.28.17-.08.05-.16.1-.25.15-.1.05-.21.09-.32.14-.09.03-.17.08-.26.1-.12.04-.25.07-.38.1-.08.02-.16.04-.24.06-.2.03-.41.05-.62.05-.01,0-.02,0-.03,0-.24,0-.48-.02-.71-.06-.07-.01-.14-.04-.2-.05-.16-.03-.31-.07-.46-.12-.09-.03-.17-.08-.25-.11-.12-.06-.25-.1-.36-.17-.09-.05-.17-.11-.26-.17-.1-.07-.21-.13-.3-.21-.08-.07-.16-.15-.24-.22-.08-.08-.17-.15-.25-.24-.08-.08-.14-.18-.21-.26-.07-.09-.14-.17-.2-.27-.06-.1-.11-.2-.16-.3-.05-.1-.11-.19-.15-.3-.04-.1-.08-.22-.11-.32-.03-.1-.07-.19-.09-.29v-14.74h0ZM21.54,50.49v8.98l-1.17-.35c-.12-.12-.46-.55-.48-1.95,0-1.31.37-3.45,1.65-6.68ZM65.09,74.79c-.01,7.27-5.89,13.15-13.16,13.16h-21.64c-.85,0-1.68-.08-2.49-.24l-.26-.02h-.48s-.06,0-.09,0c-.06,0-.1,0-.12,0-3.83-.01-6.83-1.9-9.4-5.01-3.83-4.65-6.29-11.97-7.69-18.1-.71-3.06-1.16-5.83-1.44-7.81-.17-1.19-.27-2.1-.32-2.64,5.29-6.94,6.74-12.68,7.12-14.83.82-.3,1.48-.42,1.99-.42,1.08.03,1.58.39,2.13,1.11,1.01,1.35,1.28,4.16,1.25,5.4,0,.15,0,.27,0,.37-2.65,5.47-3.47,8.99-3.48,11.42-.07,3.23,1.77,4.53,2.21,4.62l3.37,1.01c.21.06,3.17.13,5.47.85,2.62.82,5.39,2.38,6.75,5.34.24.53.77.84,1.31.84.2,0,.41-.04.6-.14.73-.34,1.04-1.19.71-1.92-1.86-4.01-5.49-5.95-8.51-6.89-1.79-.56-3.4-.78-4.47-.88v-6.37c.1.06.2.12.3.18.12.08.25.15.38.22.2.11.41.2.63.29.13.06.26.11.39.16.25.08.5.15.75.2.11.03.22.06.34.08.38.06.77.1,1.16.1h0s.05,0,.08,0c.35,0,.7-.03,1.04-.09.11-.02.22-.06.33-.08.24-.05.49-.1.72-.18.13-.04.25-.1.38-.15.21-.08.42-.16.61-.26.13-.06.25-.15.37-.22.15-.09.3-.16.44-.26.56,2.71,2.69,4.84,5.4,5.41.02,0,.04,0,.05.01.2.04.4.07.61.1.03,0,.06,0,.08.01.23.02.46.04.7.04.02,0,.04,0,.06,0,.27,0,.53-.02.79-.05.09-.01.18-.03.27-.04.2-.03.4-.07.59-.12.08-.02.16-.04.24-.06.26-.07.52-.16.77-.27.03-.01.06-.03.09-.04.22-.1.44-.21.65-.33.07-.04.14-.08.2-.12.18-.11.35-.23.53-.36.05-.04.1-.07.15-.11.22-.17.42-.35.61-.55.02-.02.04-.04.06-.07.17-.17.33-.36.48-.55.04-.05.08-.1.12-.16.14-.19.27-.38.39-.59.02-.03.03-.05.05-.08.18.17.37.32.56.47.04.03.08.06.12.08.25.18.52.35.8.5.02.01.04.02.06.03.29.15.59.27.9.38.06.02.11.04.17.06.3.1.62.18.94.23.06,0,.12.02.19.03.33.05.66.08,1,.08,0,0,.02,0,.03,0,.05,0,.1,0,.15,0,.17,0,.35-.01.52-.03.09,0,.18-.02.27-.04.13-.02.26-.03.38-.06.1-.02.19-.04.29-.06.11-.03.23-.06.35-.09.1-.03.19-.06.28-.09.11-.04.22-.08.33-.12.09-.04.18-.07.27-.11.11-.05.22-.1.33-.16.08-.04.17-.08.25-.13.11-.06.22-.13.33-.2.07-.04.14-.08.21-.13.16-.11.31-.22.46-.35.05-.04.09-.08.14-.12.12-.11.25-.22.36-.33.06-.06.11-.12.17-.18.09-.09.18-.19.26-.28.06-.07.12-.14.17-.21.07-.1.15-.19.22-.29.05-.08.1-.16.15-.24.06-.1.13-.2.19-.3.05-.08.09-.17.14-.25.06-.11.11-.22.16-.33.04-.08.08-.17.11-.25.05-.12.09-.25.14-.37.02-.08.06-.15.08-.23.06-.2.12-.4.16-.61.14.1.29.17.44.26.12.07.24.15.37.22.19.1.4.18.61.26.13.05.25.11.38.15.23.08.47.12.72.18.11.02.23.06.34.08.36.06.73.09,1.12.09s.74-.03,1.1-.09c.03,0,.06,0,.09-.01.34-.06.68-.15,1-.25.04-.01.09-.02.13-.04.31-.11.61-.24.9-.39.04-.02.09-.05.13-.07.29-.16.56-.33.82-.52.02-.01.04-.02.06-.04v22.97h0Z"/>
</svg>