<?xml version="1.0" encoding="UTF-8"?>
<svg id="Layer_1" data-name="Layer 1" xmlns="http://www.w3.org/2000/svg" width="73.03" height="91.85" viewBox="0 0 73.03 91.85">
  <path d="M62.1,37.32h0c-.33-.05-.66-.07-.98-.07-1.08,0-2.11.26-3.04.71,0-.02,0-.03,0-.05,0-3.44-2.53-6.42-6.02-6.92-.33-.05-.65-.07-.98-.07-1.12,0-2.18.28-3.13.76l2.98-22.88c.04-.32.06-.65.06-.97,0-3.44-2.53-6.42-6.02-6.92-.32-.04-.65-.07-.98-.07-3.44,0-6.43,2.52-6.92,6.03l-5,33.25-8.7-31.89c-.84-3.12-3.66-5.18-6.75-5.18-.6,0-1.21.08-1.82.24-3.12.84-5.18,3.66-5.18,6.75,0,.6.08,1.21.24,1.82l5.85,24.24c-.59.1-1.21.28-1.87.53-.26.1-.51.2-.78.32-.48.22-.8.68-.84,1.2,0,0,0,.05-.03.23-.17,1.21-1.24,7.07-6.98,14.42h0c-.11.14-.18.29-.23.45,0,.01-.01.02-.02.03-.05.16-.06.32-.05.49,0,.01,0,.02,0,.03,0,.06.74,9.06,3.72,18.18,1.49,4.57,3.54,9.17,6.44,12.74,2.87,3.55,6.76,6.12,11.63,6.12h.02c.08,0,.14,0,.18,0h24.91c8.87,0,16.06-7.19,16.06-16.06l.19-29.57c.04-.33.07-.66.07-.98,0-3.43-2.53-6.42-6.02-6.91ZM51.07,33.82h0c.19,0,.38.01.58.04,2.05.28,3.53,2.05,3.53,4.05,0,.19-.01.39-.04.58l-.42,2.96-1.64,11.69-.2,1.43-.34,2.4s-.02.06-.02.08c-.32,2-2.06,3.44-4.03,3.44-.19,0-.39,0-.58-.04-1.79-.25-3.15-1.63-3.46-3.32,0-.01,0-.03,0-.04-.04-.23-.06-.47-.06-.71,0-.18.01-.37.04-.56l.89-6.35,1.13-8.02.58-4.12c.06-.39.17-.76.33-1.1.02-.04.03-.08.04-.12.67-1.38,2.1-2.31,3.67-2.31ZM20.25,59.12s-.03-.03-.05-.06c-.05-.07-.12-.18-.19-.35-.01-.03-.02-.06-.03-.09,0,0,0,0,0,0-.1-.3-.19-.75-.2-1.45,0-.08,0-.18,0-.26,0-.1,0-.21.01-.32,0-.1.02-.2.03-.3.01-.13.03-.27.05-.41.01-.11.03-.23.05-.34.02-.15.05-.31.08-.48.02-.13.05-.26.08-.39.02-.07.03-.15.05-.22l.88,4.9-.77-.22ZM64.97,74.79c-.01,7.27-5.89,13.15-13.16,13.16h-24.89c-.07,0-.15,0-.2,0-3.83-.01-6.83-1.91-9.4-5.05-3.84-4.69-6.29-12.07-7.69-18.24-.71-3.09-1.16-5.87-1.44-7.88-.17-1.21-.27-2.12-.33-2.66.09-.12.18-.24.27-.36.19-.25.38-.51.56-.76.13-.18.25-.35.37-.53.17-.25.35-.5.51-.75.11-.17.22-.33.33-.5.16-.25.32-.49.47-.74.1-.16.19-.31.28-.47.15-.24.3-.49.43-.73.09-.15.16-.29.25-.44.14-.24.27-.49.4-.72.07-.14.14-.27.21-.4.12-.24.25-.48.36-.71.06-.12.12-.24.18-.36.11-.23.23-.47.33-.69.05-.11.09-.22.15-.33.1-.23.2-.46.3-.68.04-.1.08-.19.12-.29.09-.22.18-.45.26-.66.03-.08.06-.16.09-.24.08-.22.16-.44.24-.64.02-.07.04-.13.07-.2.07-.21.14-.42.21-.62.02-.06.03-.11.05-.17.06-.2.12-.4.18-.59.01-.04.02-.08.03-.13.05-.19.1-.38.15-.55.01-.04.02-.08.03-.12.04-.17.08-.33.12-.48.02-.07.03-.12.04-.19.02-.12.05-.23.07-.34.03-.16.06-.31.09-.45.52-.19.98-.31,1.37-.36.01,0,.02,0,.03,0,.21-.03.41-.05.58-.05.34,0,.61.05.85.12.37.12.67.32.94.59.11.12.22.24.33.39.29.39.52.9.69,1.46.44,1.38.58,3.06.56,3.94,0,.15,0,.27,0,.37h0c-.08.16-.14.31-.21.46-.16.33-.31.66-.46.98-.3.66-.56,1.29-.81,1.89-1.48,3.64-1.99,6.2-1.99,8.09,0,.34.02.64.05.94.22,2.19,1.36,3.28,1.93,3.6.09.05.17.08.23.09l.05.02.08.03,2.76.82.48.14c.13.04.26.06.39.06,0,0,.01,0,.02,0,.03,0,.05,0,.08-.01.05,0,.1,0,.15-.01.44,0,2.53.1,4.83.82,2.62.82,5.39,2.38,6.74,5.34.24.53.77.85,1.32.85.2,0,.41-.04.6-.14.73-.34,1.04-1.19.71-1.92-1.86-4.01-5.49-5.95-8.51-6.89-1.92-.6-3.65-.82-4.71-.9l-.88-4.93-.39-2.15-.9-3.6c.13-.31.25-.6.4-.93.23-.5.47-1.02.74-1.56h0s.02-.05.03-.08c.08-.17.13-.35.14-.54,0-.02.01-.2.02-.49,0-.1,0-.21,0-.33h0c0-.28-.02-.63-.03-1.01,0-.17-.02-.35-.03-.54-.02-.2-.03-.41-.06-.63-.17-1.51-.59-3.34-1.66-4.9-.19-.27-.42-.53-.67-.78-.56-.55-1.24-1.02-2.06-1.28l-6.05-25.1c-.1-.4-.15-.75-.15-1.1,0-1.81,1.21-3.47,3.04-3.95.35-.1.71-.14,1.06-.14,1.81,0,3.47,1.21,3.96,3.04l9.51,34.86.65,2.39c.04.15.11.28.19.41.31.48.89.74,1.47.63.02,0,.04.01.06.02.79.12,1.53-.43,1.65-1.22l.13-.86.51-3.4,5.19-34.52c.28-2.06,2.05-3.54,4.05-3.54.19,0,.38.01.57.04,2.05.29,3.53,2.05,3.53,4.05,0,.19-.01.39-.04.58l-6.5,47.02c-.04.32-.07.65-.06.97,0,.4.03.81.1,1.2.5,2.92,2.83,5.3,5.92,5.73.33.04.66.07.98.07,2.97,0,5.59-1.89,6.57-4.65,1.01.93,2.3,1.59,3.76,1.8.32.05.63.07.94.07h.04c2.02,0,3.86-.88,5.15-2.31v16.48s0,0,0,0ZM65.18,44.82l-.24,1.74-.14.99-.68,4.82-.26,1.84c-.03.25-.1.5-.18.75-.56,1.64-2.13,2.78-3.87,2.77-.19,0-.39-.01-.58-.04-1.74-.24-3.06-1.56-3.42-3.17,0-.05-.03-.09-.03-.14,0-.02,0-.03-.01-.04-.04-.24-.06-.48-.06-.72,0-.18.01-.36.04-.56l.85-6.01.47-3.37c.03-.26.1-.52.19-.77.05-.15.12-.3.19-.45.03-.06.06-.11.1-.16.7-1.29,2.06-2.15,3.57-2.15h.01c.19,0,.38.01.58.04h0c2.04.29,3.52,2.05,3.52,4.05,0,.2-.01.39-.04.58Z"/>
</svg>